<svg width="212" height="322" viewBox="0 0 212 322" fill="none" xmlns="http://www.w3.org/2000/svg">
<line x1="1.7793" y1="271.577" x2="205.885" y2="271.577" stroke="white" stroke-width="5.2503"/>
<path d="M35.9062 232.2V249.501C35.6267 252.444 32.5289 258.354 22.3732 258.449C9.67863 258.569 4.88821 254.273 3.0918 248.546" stroke="white" stroke-width="5.2503"/>
<path d="M165.195 290.609H135.006V302.423M165.195 314.236H135.006V302.423M135.006 302.423H165.195" stroke="white" stroke-width="5.2503"/>
<path d="M122.536 291.267H91.6904V303.408M122.536 315.549H91.6904V303.408M91.6904 303.408H122.536" stroke="white" stroke-width="5.2503"/>
<path d="M81.8465 232.2H50.3447V245.326M81.8465 258.452H50.3447V245.326M50.3447 245.326H81.8465" stroke="white" stroke-width="5.2503"/>
<path d="M89.7217 232.2H105.801M121.88 232.2H105.801M105.801 232.2V263.702" stroke="white" stroke-width="5.2503"/>
<path d="M36.2365 298.438C35.6192 294.911 29.8238 288.541 11.581 291.271C6.10199 293.281 -1.08245 298.119 14.0118 301.395C32.8797 305.49 32.5324 301.85 36.2365 309.471C39.9407 317.092 10.8865 315.159 8.91869 312.77C6.95088 310.381 5.33033 310.04 4.4043 305.717" stroke="white" stroke-width="5.2503"/>
<path d="M49.6885 319.862V294.923H74.2608C76.8229 295.039 81.7839 297.3 81.1318 305.411C80.8212 307.548 79.0123 311.867 74.2608 312.054H49.6885" stroke="white" stroke-width="5.2503"/>
<path d="M176.352 318.549V294.267L197.213 294.727C201.017 295.379 208.601 298.824 208.509 307.386C208.417 315.948 200.94 318.396 197.213 318.549H176.352Z" stroke="white" stroke-width="5.2503"/>
<path d="M94.287 2.59366L90.9766 0.744141L87.6661 2.59366L46.5618 25.0653L5.36558 47.6295L1.7793 49.5714V53.7329V143.897V148.058L5.36558 150L87.6661 195.129L90.9766 196.978L94.287 195.129L176.588 150L180.174 148.058V143.897V53.7329V49.5714L176.588 47.6295L94.287 2.59366ZM53.0907 37.2721L90.9766 16.5575L166.38 57.8943V103.855L141.185 89.9834L146.242 80.8283L91.9881 50.4037L91.5283 49.5714L90.9766 49.7564L90.5168 49.479L90.149 50.2188L15.5727 91.2781V57.8018L53.0907 37.2721ZM166.288 119.576L166.38 119.391V139.828L97.8733 177.373L97.5974 114.859L127.483 131.32L134.104 119.113L97.5054 98.9536L97.4135 69.2688L122.977 83.6026L117.92 92.9427L166.288 119.576ZM83.6201 69.6387L83.9879 177.281L15.5727 139.736V107.091L44.079 91.3706V138.533H57.8724V83.7876L83.6201 69.6387Z" fill="white"/>
</svg>
